<svg xmlns="http://www.w3.org/2000/svg" xmlns:xlink="http://www.w3.org/1999/xlink" width="230" height="159" fill="none"  xmlns:v="https://vecta.io/nano"><path d="M145.182 137.168c.014.014 10.287 5.072 20.22 1.034l8.725-18.573-2.672-32.882-9.932-23.929s-14.508 2.777-12.974 19.707l-3.652 53.949c-.014 0 .086.269.285.694z" fill="url(#A)"/><path d="M95.916 119.459c.057.538-3.013 2.097-5.613 3.273l-3.382 1.53c-6.75 3.23-14.38 5.369-21.67 6.97-5.243 1.133-12.618 2.21-16.015-3.202-3.453-5.596 4.519-11.532 8-13.43 4.078-2.196 8.625-3.273 13.045-4.038 3.922-.666 7.901-1.006 11.865-1.303 0 0 2.742-.34 5.712-.794 2.714-.425 5.627-.963 6.721-1.431l1.336 12.425z" fill="url(#B)"/><path d="M95.916 119.459c.057.538-3.012 2.097-5.613 3.273l-2.444-14.267c2.714-.425 5.627-.963 6.721-1.431l1.336 12.425z" fill="url(#C)"/><path d="M159.519 68.783s-5.769 20.684-4.49 43.537l12.959 6.191 4.206-30.46-12.675-19.267z" fill="url(#D)"/><path d="M177.836 42.134s2.884 12.935 1.648 20.684l2.259 5.015h4.32l7.418-7.126 4.533-5.724v-4.123s-3.496-14.153-2.885-19.806l-5.769-2.564c-.611 0-13.386 2.564-13.386 2.564l1.862 11.079z" fill="url(#E)"/><path d="M181.005 56.103s2.316 4.987 11.85-2.678l4.32 2.139.228 4.718-5.67 5.965-7.446 2.536-5.684-4.307s-1.265-4.789-1.265-5.129.583-3.258.583-3.258l3.084.014z" fill="url(#F)"/><path d="M70.95 110.463s-1.364 6.503-3.538 12.042l-3.126 1.388-1.137-7.749 4.789-5.681h3.012z" fill="url(#G)"/><path d="M93.16 121.202v-.199c0-.099-.37-9.492-2.288-12.977l-.085-.142.142-.085c.043-.028 4.121-2.592 8.54-2.592h.384l.057.07c.028.043 3.198 4.307 2.459 11.759v.057l-.029.043c-.085.113-2.316 2.805-8.966 4.037l-.213.029zm-1.904-13.204c1.748 3.4 2.174 11.362 2.231 12.779 5.954-1.148 8.227-3.514 8.525-3.84.654-6.772-1.961-10.824-2.344-11.376-3.936-.071-7.659 1.997-8.412 2.437z" fill="#000"/><path d="M229.148 153.305s-12.363-6.262-37.187 2.21c-26.26 8.968-33.308-2.21-33.308-2.21-.071-3.811-.057-11.872-.029-16.902l.029-4.335h-.029v-.198c1.265-26.182.867-65.198.867-65.198-.142-3.599 2.004-3.839 2.004-3.839 11.069-2.408 16.526-6.63 16.526-6.63 8.938 9.095 19.965-5.341 19.965-5.341l18.472 11.971-.767 31.083c.028 24.184 13.457 59.39 13.457 59.39z" fill="#652d90"/><path d="M52.648 24.184s15.645-2.012 12.562 8.84c0 0-3.297 11.334-12.562 16.632 0 0 .824 6.843 4.021 13.105 0 0 7.517 12.623-1.847 20.529H42.26l1.648-9.648-1.648-40.745 3.084-5.129 7.304-3.584z" fill="url(#H)"/><path d="M63.006 21.251c2.97 3.003-.412 7.509-2.629 10.243 0 0-6.48 7.976-11.268 10.64l-5.4 42.077-4.49 33.704-6.337 13.572c-.114.241-3.297.34-3.553.354-3.027.298-6.096.369-9.108-.085-5.286-.793-11.581-3.017-15.446-6.814-6.11-6.021-5.869-18.248-2.046-25.402 1.322-2.465 2.359-5.568 1.549-8.359-.696-2.423-2.487-4.477-3.112-7.013-.554-2.309-.469-4.689.384-6.914 1.833-4.76 6.267-7.395 10.217-10.257 4.149-3.003 8.327-7.537 8.412-12.949.085-4.831-1.478-9.506-1.393-14.38.128-6.517 1.762-13.601 7.489-17.539 5.187-3.556 11.638-4.831 17.848-4.874 5.556-.043 13.03.113 17.862 3.188a5.59 5.59 0 0 1 1.023.808z" fill="url(#I)"/><path d="M71.603 107.87c-1.094 5.795-4.618 11.433-8.654 16.477l-.199 4.817-1.037 24.127s-8.185-5.951-24.896 0c-14.082 5.015-27.61 0-27.61 0 5.755-5.596 12.192-11.646 15.659-18.999 7.446-15.782-8.497-31.196-2.785-47.191 1.478-4.151 5.357-8.16 9.165-10.356 12.135-7.027 27.979 5.525 36.249 15.655 4.149 5.086 5.087 10.343 4.107 15.471z" fill="#652d90"/><path d="M31.233 76.745s8.028-3.301 17.705 5.738c0 0 7.702 7.296 11.78 2.834.199-.241-9.137-9.195-9.989-10.101-1.62-1.728-1.137-4.222-1.066-6.347.085-2.692.37-5.412.668-8.09.213-1.87.455-3.74.767-5.596L38.438 48.92s-.512 14.592-7.204 27.825z" fill="url(#J)"/><path d="M62.95 124.347l1.35-1.743c-1.677.284-3.339.638-4.973 1.134L47.873 91.224c-4.988-13.983-16.071-9.62-16.071-9.62-14.75 6.984-2.274 28.335-2.274 28.335 9.265 19.933 15.517 26.663 17.805 28.66 3.155 4.661 9.862 4.307 14.849 3.641l.767-17.893z" fill="url(#K)"/><path d="M51.098 55.182l-8.739-4.321-4.121.623c-.17 1.828-.526 4.519-1.151 7.693 3.041 2.479 5.158 1.034 5.158 1.034 1.634 2.791 5.115 5.029 7.574 6.347.213-3.173.597-7.112 1.279-11.376z" fill="url(#L)"/><path d="M60.719 31.055s-1.179 7.891-1.066 11.079c0 0 0 3.599 2.785 6.262 0 0 1.833 1.303-1.705 5.27l-2.473 5.582c-.824 1.856-1.52 4.406-3.652 5.185-2.345.85-4.988-.623-6.835-1.955-2.004-1.459-4.391-3.287-5.499-5.568 0 0-.824 2.876-3.808 1.233 0 0-5.968-3.599-7.204-9.237-.526-2.408-.128-5.454 2.217-6.744 3.439-1.898 4.391.878 5.755 3.329.753 1.346 1.805 2.522 3.041 3.414 0 0-2.472-6.46 2.472-9.747-.028 0 11.482-3.584 15.972-8.104z" fill="url(#M)"/><path d="M60.718 31.055c-4.49 4.519-16 8.104-16 8.104-1.137.751-1.861 1.672-2.33 2.649 8.228-1.658 17.677-5.794 17.691-5.794l.639-4.959z" fill="url(#N)"/><path d="M48.939 82.482s7.702 7.296 11.78 2.833l-.852-.864c-3.368 3.868-10.956-2.678-13.826-4.491-1.151-.722-2.33-1.502-3.595-2.012v.014c2.032.949 4.22 2.38 6.494 4.519z" fill="url(#O)"/><path d="M60.235 118.51s-6.167-17.964-13.57-30.46l-2.515 2.182 1.336 12.212 5.513 13.091 4.632 6.007 2.728-.567 1.876-2.465z" fill="url(#P)"/><path d="M196.095 41.78l-.881-6.262-5.129 3.499c-.199.312-6.636 5.284-6.636 5.284l-4.832 1.941.853 6.333c1.705-.213 9.847-1.686 16.625-10.796z" fill="url(#Q)"/><path d="M200.742 20.812l4.618 1.828s-.256 6.078-2.472 8.33l-5.4-3.4 3.254-6.758z" fill="url(#R)"/><path d="M164.237 14.423c1.293 4.576 2.273 9.393 2.629 14.139.156 2.083.128 4.151.199 6.234.113 3.386 1.207 7.225 3.651 9.705 1.805 1.828 3.908 3.684 6.239 4.789 2.87 1.36 5.769.326 8.369-1.133 0 0 9.677-5.412 11.325-10.541 0 0 .611 2.366 3.084 1.233 3.922-1.785 6.167-7.013 4.277-11.022-.81-1.7-2.401-3.103-4.377-2.323l1.492-6.418-7.46-6.517-11.581-.666h-8.639l-7.517 1.431-1.691 1.091z" fill="url(#S)"/><path d="M197.488 22.937l-33.251-8.5c.014.057.909 3.23 1.691 7.551l32.071 3.018-.511-2.068z" fill="url(#T)"/><path d="M196.564 18.488v15.471s4.86-7.934 6.338-15.088l-2.089-4.774-2.799 1.544-1.45 2.848z" fill="url(#U)"/><path d="M205.119 25.005l-40.356-10.909s.611-11.362 13.684-13.728c8.781-1.587 18.899 2.054 24.583 8.954 1.819 2.21 3.325 4.93 3.666 7.806.142 1.233.17 2.522-.014 3.754-.086.411-1.166 4.222-1.563 4.123z" fill="#56c4cf"/><path d="M205.63 24.184l-40.611-11.688c-1.99-.694-4.135-1.162-6.238-1.303-1.791-.113-4.917.298-5.144 2.607-.242 2.409 3.041 3.273 4.788 3.74 2.203.595 4.562.878 6.835 1.048 0 0 18.885 1.913 39.717 7.296 0 0 .923-.156.653-1.7z" fill="#fff23e"/><path d="M177.338 65.283l1.265 2.55 4.831-7.863 7.645 7.863 7.19-13.87-14.025 5.157-.81-.014-1.35.241-3.282 1.091-1.464 4.845z" fill="url(#V)"/><path d="M183.435 59.106s4.163 3.882 8.639 8.727c0 0 17.08-9.01 5.059-20.713.014 0-1.947 7.509-13.698 11.986z" fill="url(#W)"/><path d="M179.285 50.861s.768 5.61 4.164 8.245l-5.713 8.727c-.014 0-7.559-9.223 1.549-16.972z" fill="url(#X)"/><path d="M205.445 79.394s-.44 6.007-.085 16.972c0 0-.355 18.361-3.041 22.158l10.757 3.896v-22.384l-3.14-15.712-4.491-4.93z" fill="url(#Y)"/><path d="M216.487 62.818c7.161 4.038 12.618 10.016 13.272 18.432.596 7.735-.114 15.867-.611 23.603 0 0-.313 9.081 0 14.776 0 0 .468 12.156-12.661 10.002l-10.658-13.43s.924-16.902 0-27.669c0 0-3.865-23.093 10.658-25.714z" fill="url(#Z)"/><path d="M206 112.333l-.171 3.882 3.908 4.916 4.277-.213 8.071-1.841 3.041-3.486c-7.872-5.922-19.126-3.258-19.126-3.258z" fill="url(#a)"/><path d="M175.988 116.64s3.297 5.652 0 14.79c12.775 3.726 26.402 5.653 39.745 5.341 9.677-.226 12.036-7.806 11.126-15.739 0 0-5.271-10.187-24.242-5.639.015-.014-18.003 2.706-26.629 1.247z" fill="url(#b)"/><path d="M158.638 136.403l.029-4.335h-.029v-.198l7.19-.695.327 3.174-7.517 2.054z" fill="url(#c)"/><path d="M159.647 79.45l-69.23 12.34c-1.975.354-3.282 2.281-2.913 4.307l8.27 46.101c.369 2.025 2.259 3.385 4.235 3.031l69.23-12.339c1.975-.355 3.282-2.281 2.913-4.307l-8.27-46.101c-.37-2.04-2.26-3.386-4.235-3.032z" fill="url(#d)"/><path d="M163.882 82.468c-.37-2.026-2.26-3.386-4.235-3.032l-69.23 12.34c-1.975.354-3.282 2.281-2.913 4.307l.71 3.953 76.378-13.615-.71-3.953z" fill="url(#e)"/><path d="M163.91 74.704l-79.745 14.21 1.762 9.79 79.746-14.21-1.763-9.79z" fill="url(#f)"/><path d="M158.61 99.724l-19.837 3.542-1.535-8.543 19.851-3.542 1.521 8.543z" fill="url(#g)"/><path d="M93.6 130.084c6.011-1.303 8.071-3.796 8.071-3.796 7.063 1.374 14.054.184 14.054.184 8.099-2.154 8.725-10.144 8.725-10.144.17-9.223-6.679-6.149-6.679-6.149-3.297 1.247-6.238.496-6.238.496 1.876-4.108 0-5.086 0-5.086-2.586-1.388-7.659 4.59-7.659 4.59-1.592 1.885-3.226 3.372-4.633 4.477-3.424-.085-6.65 1.417-8.028 2.154l2.387 13.274z" fill="url(#h)"/><path d="M172.137 128.569l-2.699-15.046-2.729-.963-4.774-1.63c-.029-.014-.057-.014-.085-.028-1.265-.326-2.956-.51-3.894.652-1.293 1.629 1.208 4.165 2.203 5.298-.668-.751-5.528-.184-6.466-.042-2.16.326-4.121 1.247-5.144 3.272-1.776 3.528.469 7.92 2.842 10.569 2.132 2.38 5.03 3.528 8.242 3.939l9.563-1.7c2.004-.369 3.311-2.295 2.941-4.321z" fill="url(#i)"/><path d="M164.223 109.556c-.029-.014-.057-.014-.085-.028-1.265-.326-2.97-.51-3.894.652-1.293 1.629 1.208 4.165 2.203 5.298-.654-.751-5.528-.184-6.466-.042-2.16.325-4.121 1.246-5.144 3.272-1.776 3.528.483 7.92 2.842 10.569 7.418 8.274 23.93 2.083 32.1-1.317v-10.768l-6.011-2.153-10.785-3.839c-1.577-.567-3.14-1.219-4.76-1.644z" fill="url(#j)"/><path d="M180.422 115.251s3.154 5.653 0 14.791c12.235 3.726 25.279 5.653 38.068 5.341 9.265-.227 11.524-7.806 10.657-15.74 0 0-5.044-10.186-23.219-5.638 0-.015-17.25 2.72-25.506 1.246z" fill="url(#k)"/><path d="M96.229 114.911s4.362-2.21 8.469-7.055c0 0 5.073-5.979 7.659-4.59 0 0 1.876.977 0 5.086 0 0 2.942.765 6.238-.496 0 0 6.864-3.074 6.679 6.149 0 0-.625 7.99-8.725 10.143 0 0-9.08 1.545-17.009-.92l-3.311-8.317z" fill="url(#l)"/><path d="M71.603 107.884c-1.094 5.781-4.618 11.419-8.654 16.463l-.199 4.817-9.222-2.607-3.084-12.34c14.125 3.825 20.746-5.723 21.158-6.333z" fill="url(#m)"/><path d="M94.893 113.99l1.336 12.411c.099.892-8.27 4.448-8.995 4.803-6.75 3.216-14.38 5.369-21.684 6.97-5.229 1.148-12.618 2.224-15.986-3.202-3.467-5.582 4.519-11.532 8-13.416 4.078-2.21 8.611-3.287 13.045-4.038 3.936-.666 7.901-1.006 11.865-1.318 0 0 10.146-1.218 12.419-2.21z" fill="url(#n)"/><path d="M61.088 120.422s-1.918 14.267-9.904 16.052c0 0-7.247-3.4-21.087-27.825 0 0-14.153-20.302 0-28.433 0 0 10.7-5.228 16.782 8.316l14.21 31.89z" fill="url(#o)"/><path d="M61.088 120.422l-.853-1.912s-.156 6.602-3.283 13.544c3.212-4.803 4.135-11.632 4.135-11.632z" fill="url(#p)"/><path d="M91.326 114.883s4.206-2.678 8.739-2.55c0 0 3.169 4.165 2.43 11.631 0 0-2.188 2.749-8.853 3.981 0 0-.355-9.492-2.316-13.062z" fill="url(#q)"/><defs><linearGradient id="A" x1="101.825" y1="70.376" x2="189.618" y2="121.148" xlink:href="#r"><stop offset=".471" stop-color="#81d4f7"/><stop offset=".698" stop-color="#3da7de"/></linearGradient><linearGradient id="B" x1="87.326" y1="96.238" x2="59.037" y2="143.526" xlink:href="#r"><stop offset=".184" stop-color="#fea"/><stop offset=".725" stop-color="#fecd73"/></linearGradient><linearGradient id="C" x1="89.866" y1="128.646" x2="92.533" y2="109.138" xlink:href="#r"><stop offset=".204" stop-color="#fea"/><stop offset=".488" stop-color="#fecd73"/></linearGradient><linearGradient id="D" x1="142.526" y1="88.982" x2="181.738" y2="97.653" xlink:href="#r"><stop stop-color="#81d4f7"/><stop offset=".465" stop-color="#3da7de"/></linearGradient><linearGradient id="E" x1="149.954" y1="55.825" x2="233.933" y2="38.483" xlink:href="#r"><stop offset=".404" stop-color="#f5e0cd"/><stop offset=".748" stop-color="#dfb28b"/></linearGradient><linearGradient id="F" x1="194.321" y1="74.275" x2="185.201" y2="53.923" xlink:href="#r"><stop stop-color="#f5e0cd"/><stop offset=".633" stop-color="#dfb28b"/></linearGradient><linearGradient id="G" x1="106.928" y1="122.42" x2="46.91" y2="114.365" xlink:href="#r"><stop offset=".204" stop-color="#fea"/><stop offset=".488" stop-color="#fecd73"/></linearGradient><linearGradient id="H" x1="37.008" y1="51.039" x2="69.051" y2="57.582" xlink:href="#r"><stop offset=".339"/><stop offset="1" stop-color="#58595b"/></linearGradient><linearGradient id="I" x1="8.117" y1="103.193" x2="66.888" y2="29.124" xlink:href="#r"><stop offset=".202"/><stop offset="1" stop-color="#58595b"/></linearGradient><linearGradient id="J" x1="72.678" y1="72.849" x2="21.189" y2="62.482" xlink:href="#r"><stop offset=".465" stop-color="#f5e0cd"/><stop offset=".785" stop-color="#dfb28b"/></linearGradient><linearGradient id="K" x1="60.262" y1="82.802" x2="12.723" y2="176.933" xlink:href="#r"><stop offset=".096" stop-color="#db9f5a"/><stop offset=".848" stop-color="#fecd73"/></linearGradient><linearGradient id="L" x1="43.687" y1="78.453" x2="44.332" y2="45.046" xlink:href="#r"><stop stop-color="#f5e0cd"/><stop offset=".707" stop-color="#dfb28b"/></linearGradient><linearGradient id="M" x1="16.058" y1="54.955" x2="80.498" y2="43.781" xlink:href="#r"><stop offset=".51" stop-color="#f5e0cd"/><stop offset="1" stop-color="#ecc19c"/></linearGradient><linearGradient id="N" x1="51.279" y1="50.573" x2="51.739" y2="26.709" xlink:href="#r"><stop stop-color="#f5e0cd"/><stop offset=".707" stop-color="#dfb28b"/></linearGradient><linearGradient id="O" x1="51.362" y1="93.236" x2="51.715" y2="74.909" xlink:href="#r"><stop stop-color="#f5e0cd"/><stop offset=".707" stop-color="#dfb28b"/></linearGradient><linearGradient id="P" x1="166.05" y1="120.119" x2="-3.304" y2="97.391" xlink:href="#r"><stop offset=".204" stop-color="#fea"/><stop offset=".72" stop-color="#fecd73"/></linearGradient><linearGradient id="Q" x1="191.808" y1="53.957" x2="185.767" y2="40.476" xlink:href="#r"><stop stop-color="#f5e0cd"/><stop offset=".633" stop-color="#dfb28b"/></linearGradient><linearGradient id="R" x1="197.491" y1="25.888" x2="205.363" y2="25.888" xlink:href="#r"><stop offset=".284" stop-color="#885c3c"/><stop offset=".948" stop-color="#604026"/></linearGradient><linearGradient id="S" x1="204.721" y1="21.444" x2="153.723" y2="38.199" xlink:href="#r"><stop offset=".551" stop-color="#f5e0cd"/><stop offset="1" stop-color="#ecc19c"/></linearGradient><linearGradient id="T" x1="180.991" y1="31.739" x2="181.194" y2="13.269" xlink:href="#r"><stop stop-color="#f5e0cd"/><stop offset=".635" stop-color="#dfb28b"/></linearGradient><linearGradient id="U" x1="196.564" y1="24.025" x2="202.895" y2="24.025" xlink:href="#r"><stop offset=".284" stop-color="#885c3c"/><stop offset=".948" stop-color="#604026"/></linearGradient><linearGradient id="V" x1="186.404" y1="72.69" x2="187.824" y2="59.333" xlink:href="#r"><stop stop-color="#81d4f7"/><stop offset=".723" stop-color="#3da7de"/></linearGradient><linearGradient id="W" x1="179.924" y1="73.936" x2="204.853" y2="44.302" xlink:href="#r"><stop offset=".384" stop-color="#ecf8fe"/><stop offset="1" stop-color="#a5dff9"/></linearGradient><linearGradient id="X" x1="179.791" y1="74.851" x2="178.357" y2="42.107" xlink:href="#r"><stop offset=".384" stop-color="#ecf8fe"/><stop offset=".892" stop-color="#a5dff9"/></linearGradient><linearGradient id="Y" x1="186.775" y1="88.529" x2="219.255" y2="108.426" xlink:href="#r"><stop stop-color="#81d4f7"/><stop offset=".572" stop-color="#3da7de"/></linearGradient><linearGradient id="Z" x1="260.079" y1="70.865" x2="149.649" y2="139.372" xlink:href="#r"><stop offset=".321" stop-color="#81d4f7"/><stop offset=".572" stop-color="#3da7de"/></linearGradient><linearGradient id="a" x1="216.238" y1="103.213" x2="215.01" y2="122.97" xlink:href="#r"><stop offset=".002" stop-color="#81d4f7"/><stop offset=".5" stop-color="#3da7de"/></linearGradient><linearGradient id="b" x1="198.269" y1="144.719" x2="202.178" y2="116.128" xlink:href="#r"><stop stop-color="#81d4f7"/><stop offset=".194" stop-color="#279bd0"/></linearGradient><linearGradient id="c" x1="161.576" y1="139.084" x2="162.592" y2="131.646" xlink:href="#r"><stop stop-color="#81d4f7"/><stop offset=".194" stop-color="#2490c1"/></linearGradient><linearGradient id="d" x1="81.186" y1="155.877" x2="177.898" y2="68.76" xlink:href="#r"><stop offset=".236" stop-color="#a97c50"/><stop offset=".636" stop-color="#c49a6c"/></linearGradient><linearGradient id="e" x1="123.445" y1="79.538" x2="128.442" y2="102.205" xlink:href="#r"><stop offset=".712" stop-color="#a97c50"/><stop offset=".978" stop-color="#c49a6c"/></linearGradient><linearGradient id="f" x1="117.06" y1="122.562" x2="130.524" y2="60.741" xlink:href="#r"><stop offset=".256" stop-color="#c49a6c"/><stop offset=".854" stop-color="#fbd28e"/></linearGradient><linearGradient id="g" x1="130.616" y1="109.788" x2="156.295" y2="91.036" xlink:href="#r"><stop offset=".381" stop-color="#e6e7e8"/><stop offset=".774" stop-color="#fff"/></linearGradient><linearGradient id="h" x1="103.724" y1="100.022" x2="114.165" y2="144.065" xlink:href="#r"><stop offset=".712" stop-color="#926b44"/><stop offset=".978" stop-color="#c49a6c"/></linearGradient><linearGradient id="i" x1="152.654" y1="104.847" x2="169" y2="143.573" xlink:href="#r"><stop offset=".712" stop-color="#a97c50"/><stop offset=".978" stop-color="#c49a6c"/></linearGradient><linearGradient id="j" x1="159.703" y1="100.66" x2="177.524" y2="142.882" xlink:href="#r"><stop offset=".435" stop-color="#f5e0cd"/><stop offset="1" stop-color="#ecc19c"/></linearGradient><linearGradient id="k" x1="197.101" y1="109.92" x2="216.507" y2="147.82" xlink:href="#r"><stop offset=".27" stop-color="#81d4f7"/><stop offset=".894" stop-color="#3da7de"/></linearGradient><linearGradient id="l" x1="118.61" y1="105.626" x2="103.021" y2="126.097" xlink:href="#r"><stop offset=".304" stop-color="#f5e0cd"/><stop offset=".792" stop-color="#ecc39e"/></linearGradient><linearGradient id="m" x1="62.5" y1="92.494" x2="57.965" y2="149.728" xlink:href="#r"><stop stop-color="#fea"/><stop offset=".725" stop-color="#fecd73"/></linearGradient><linearGradient id="n" x1="80.96" y1="114.904" x2="59.589" y2="148.985" xlink:href="#r"><stop offset=".474" stop-color="#fea"/><stop offset="1" stop-color="#fecd73"/></linearGradient><linearGradient id="o" x1="67.655" y1="85.598" x2="17.548" y2="128.853" xlink:href="#r"><stop offset=".384" stop-color="#fea"/><stop offset=".779" stop-color="#fecd73"/></linearGradient><linearGradient id="p" x1="73.893" y1="127.322" x2="51.959" y2="124.378" xlink:href="#r"><stop offset=".204" stop-color="#fea"/><stop offset=".72" stop-color="#fecd73"/></linearGradient><linearGradient id="q" x1="91.332" y1="120.133" x2="102.608" y2="120.133" xlink:href="#r"><stop offset=".184" stop-color="#fff"/><stop offset=".989" stop-color="#fffcdb"/></linearGradient><linearGradient id="r" gradientUnits="userSpaceOnUse"/></defs></svg>